<svg width="24" height="24" viewBox="0 0 24 22" fill="none" xmlns="http://www.w3.org/2000/svg">
<g filter="url(#filter0_d_117_556)">
<path d="M4.5 4.75H19.5C20.2956 4.75 21.0587 5.06607 21.6213 5.62868C22.1839 6.19129 22.5 6.95435 22.5 7.75V12.25C22.5 13.0456 22.1839 13.8087 21.6213 14.3713C21.0587 14.9339 20.2956 15.25 19.5 15.25H4.5C3.70435 15.25 2.94129 14.9339 2.37868 14.3713C1.81607 13.8087 1.5 13.0456 1.5 12.25V7.75C1.5 6.95435 1.81607 6.19129 2.37868 5.62868C2.94129 5.06607 3.70435 4.75 4.5 4.75ZM4.5 6.25C4.10218 6.25 3.72064 6.40804 3.43934 6.68934C3.15804 6.97064 3 7.35218 3 7.75V12.25C3 12.6478 3.15804 13.0294 3.43934 13.3107C3.72064 13.592 4.10218 13.75 4.5 13.75H19.5C19.8978 13.75 20.2794 13.592 20.5607 13.3107C20.842 13.0294 21 12.6478 21 12.25V7.75C21 7.35218 20.842 6.97064 20.5607 6.68934C20.2794 6.40804 19.8978 6.25 19.5 6.25H4.5ZM1.5 1C1.5 0.801088 1.57902 0.610322 1.71967 0.46967C1.86032 0.329018 2.05109 0.25 2.25 0.25H21.75C21.9489 0.25 22.1397 0.329018 22.2803 0.46967C22.421 0.610322 22.5 0.801088 22.5 1C22.5 1.19891 22.421 1.38968 22.2803 1.53033C22.1397 1.67098 21.9489 1.75 21.75 1.75H2.25C2.05109 1.75 1.86032 1.67098 1.71967 1.53033C1.57902 1.38968 1.5 1.19891 1.5 1ZM1.5 19C1.5 18.8011 1.57902 18.6103 1.71967 18.4697C1.86032 18.329 2.05109 18.25 2.25 18.25H21.75C21.9489 18.25 22.1397 18.329 22.2803 18.4697C22.421 18.6103 22.5 18.8011 22.5 19C22.5 19.1989 22.421 19.3897 22.2803 19.5303C22.1397 19.671 21.9489 19.75 21.75 19.75H2.25C2.05109 19.75 1.86032 19.671 1.71967 19.5303C1.57902 19.3897 1.5 19.1989 1.5 19Z" fill="black"/>
</g>
<defs>
<filter id="filter0_d_117_556" x="-2.5" y="0.25" width="29" height="27.5" filterUnits="userSpaceOnUse" color-interpolation-filters="sRGB">
<feFlood flood-opacity="0" result="BackgroundImageFix"/>
<feColorMatrix in="SourceAlpha" type="matrix" values="0 0 0 0 0 0 0 0 0 0 0 0 0 0 0 0 0 0 127 0" result="hardAlpha"/>
<feOffset dy="4"/>
<feGaussianBlur stdDeviation="2"/>
<feComposite in2="hardAlpha" operator="out"/>
<feColorMatrix type="matrix" values="0 0 0 0 0 0 0 0 0 0 0 0 0 0 0 0 0 0 0.25 0"/>
<feBlend mode="normal" in2="BackgroundImageFix" result="effect1_dropShadow_117_556"/>
<feBlend mode="normal" in="SourceGraphic" in2="effect1_dropShadow_117_556" result="shape"/>
</filter>
</defs>
</svg>
